<svg xmlns="http://www.w3.org/2000/svg" width="42.696" height="42.695" viewBox="0 0 42.696 42.695">
  <g id="ic_biblioteca_nac" transform="translate(-880.023 -111.888)">
    <path id="Trazado_10" data-name="Trazado 10" d="M901.371,154.583a21.347,21.347,0,1,0-21.348-21.348,21.348,21.348,0,0,0,21.348,21.348" fill="#00c081"/>
    <path id="Trazado_11" data-name="Trazado 11" d="M914.1,125.9l-1.815.228v13.888a.6.6,0,0,1-.607.542h-.6a13.485,13.485,0,0,0-7.57,2.715l10.6-1.628Zm-25.417,0v15.745l10.6,1.628a13.475,13.475,0,0,0-7.567-2.715h-.607a.6.6,0,0,1-.6-.542V126.128Zm22.391-2.172a14.659,14.659,0,0,0-9.083,3.258v16.1c2.323-1.737,5.209-3.633,9.083-3.613Zm-19.363,0v15.745c3.872-.02,6.759,1.876,9.082,3.613v-16.1a14.663,14.663,0,0,0-9.082-3.258" fill="#fff"/>
  </g>
</svg>
