<svg xmlns="http://www.w3.org/2000/svg" width="43.696" height="43.696" viewBox="0 0 43.696 43.696">
  <g id="ic_encuentro_culturas" transform="translate(8180.477 5386.257)">
    <path id="Trazado_20524" data-name="Trazado 20524" d="M901.371,345.439a21.848,21.848,0,1,0-21.848-21.848,21.848,21.848,0,0,0,21.848,21.848" transform="translate(-9060 -5688)" fill="#ad005b"/>
    <g id="Grupo_15455" data-name="Grupo 15455" transform="translate(-9060 -5688)">
      <g id="Grupo_18" data-name="Grupo 18">
        <g id="Grupo_14" data-name="Grupo 14">
          <path id="Trazado_35" data-name="Trazado 35" d="M893.828,319.927a1.581,1.581,0,0,1,.1.767c-.02.151-.121.035-.145.3-.045.484-.051.952.1.987.01.316.5.281.71.255,0,0,.111-.069.126-.113.074.008.189-.727.161-.81a.053.053,0,0,0,.039-.063c.188,0,.2-.1.2-.224a1.625,1.625,0,0,1,.1-.537c.067-.177-.022-.155-.082-.19.13-.024.125-.039.125-.1,0-.086-.106-.1-.141-.114a.5.5,0,0,0,.263-.309.511.511,0,0,0-.064-.317c.035-.145.118-.184,0-.317a.417.417,0,0,0,.19-.249,1.148,1.148,0,0,0,.018-.245.382.382,0,0,0,.128-.24c0-.061-.063-.112-.043-.231.013-.083.151-.208.192-.326s.235-.114.164-.233c.054-.037.173.014.239-.075s.186-.227.109-.223H896.3c.2.006.281-.066.17-.277l0,.005c.371-.266.43-.654.368-.7a1.025,1.025,0,0,0,.308-.4c.135.043.226-.008.3-.22s.2-.269.25-.278.19,0,.245-.049c.18-.154.118-.294.1-.321a1.569,1.569,0,0,0,.224-.264c.069-.1.009-.147.033-.262a.585.585,0,0,1,.179-.287c.076-.072.174.052.26,0s.11-.171.175-.191a.775.775,0,0,0,.218-.2.759.759,0,0,1,.5-.324c.161,0,.427.072.388-.223v0c.073-.171.376-.328.417-.493.107.146.177-.144.12-.158a.437.437,0,0,0,.405-.074c.065-.052.07-.109.1-.2s.117-.136.282-.221.315-.1.367-.158.24-.052.25-.268.554-.428.708-.544.424-.045.455-.168,0-.164.065-.257a.536.536,0,0,1,.5-.227c.3.011.616-.585,1.2-.648.211-.023.414-.4.683-.385.228.015.8-.425.932-.5.347-.2,1.033-.569.911-.786s-.6.121-.949.025-1.063.471-1.141.59-.117.068-.25.081a1.606,1.606,0,0,0-.5.311.945.945,0,0,0-.253.253,3.729,3.729,0,0,1-1.311.368,1.406,1.406,0,0,0-.872.5c-.05.149-.155.1-.347.11s-1.139.509-1.152.812c-.005.111-.02.152-.039.161s-.136-.1-.235-.063c-.078.026-.083.2-.134.219s0-.053-.128-.066-.208.239-.259.331-.206,0-.33.1-.148.2-.211.239-.151-.026-.238.068.112.238.014.316-.576.1-.675.163c-.212.133-.121.308-.373.36a1.138,1.138,0,0,0-.616.593c-.027.093,0,.142-.055.178s-.1-.058-.239-.042a.561.561,0,0,0-.358.273c-.03.092-.008.161-.1.24a4.1,4.1,0,0,0-.606.417c-.069.117.08.164-.1.283a.859.859,0,0,0-.438.328c-.374.617-.579,1.339-.775,1.563a.523.523,0,0,0-.211.308c-.027.184.034.157-.033.3s-.575.844-.442.847C894.3,318.714,893.527,319.43,893.828,319.927Z" fill="#fff"/>
        </g>
        <g id="Grupo_15" data-name="Grupo 15">
          <path id="Trazado_36" data-name="Trazado 36" d="M915.8,327.4c.11-.11.023-.242-.007-.389a2.888,2.888,0,0,0,.02-.388,2.693,2.693,0,0,0-.536-.624c-.158-.164-.268-1.154-.571-.966.209-.256-.448-1.046-.378-1.267s-.461-.638-.456-.759-.074-.108-.1-.31-.743-.745-.752-.992-.52-.524-.548-.679-.142-.132-.123-.271-.229-.228-.28-.311-.137-.033-.26-.048-.365-.516-.461-.8-.9-.473-.891-.683-.274-.334-.293-.421-.461-.216-.452-.172a.5.5,0,0,0-.485-.372c-.133.041-.39-.256-.774-.332-.154-.031-.377.068-.525.029-.03-.008-.082-.186-.23-.273a.633.633,0,0,0-.392-.025,6.607,6.607,0,0,1-.98-.454c-.026-.082-.569-.241-.634-.141-.018-.214-.49-.073-.551-.038-.049-.047-.438-.115-.417-.018-.037.03-1.1-.16-1.113.114.005.007-.716.162-.745.284-.054.227.135.441.227.622,0,0,.128.171.21.144.024-.005.055-.208.162-.164s.179.252.205.3c-.026.032.122.036.128.035.012.124.231.072.29.01s.209-.074.206.022.067.048.067.048c.027-.029.189-.2.28-.15s.167.169.321.073c0,0,.135.112.189.114a2.907,2.907,0,0,0,.325-.064.392.392,0,0,1,.416.161c.061.1.121.048.121.048.1-.088.181,0,.233.016s.1.167.252.112.464.281.464.281c.032.178.217.1.217.1.017.2.575.432.8.364,0,0,.37.09.568.111-.041.3.63.641.819.658s.5.092.556.076c-.075.241.291.258.283.213.032.188.262.112.259.157a.148.148,0,0,0-.006.189.16.16,0,0,0,.155.057.6.6,0,0,0,.129.357c.053.048.24.1.279.057-.077.119-.174.4.1.324h0c.158.044.284.347.311.206-.031.163.257.126.292.206s-.079.042-.082.1.065.269.159.258.08.171.211.161.1.087.132.153.109.178.1.271.187.244.315.249.388.313.5.507c.038.068-.029.3.018.357.016.022.168.072.222.119s.127-.01.173.013a.7.7,0,0,1,.176.474,1.675,1.675,0,0,0,.625,1c-.181.142.658,1.309.782,1.52.191.328.238.589.565.655l.2.082C915.881,327.629,915.762,327.46,915.8,327.4Z" fill="#fff"/>
        </g>
        <g id="Grupo_16" data-name="Grupo 16">
          <path id="Trazado_37" data-name="Trazado 37" d="M908.376,325.859c.034-.318-.457-.333-.666-.348h0c-.121-.006-.117.039-.137.073-.278-.076-.073.476-.1.544a.572.572,0,0,1-.208.186c-.041.02-.112.043-.125.105s-.1.048-.115.1a.082.082,0,0,0,.009.081c-.2-.006-.027.063-.107.161s-.106.266-.058.319.085.07.071.111-.092.053-.063.092.082.071.065.126-.307.409-.219.54a.386.386,0,0,1,.079.264c-.005.039-.051-.005-.072.084s-.068.221-.086.279,0,.142-.021.193-.037.039-.091.092-.09.126.037.242c-.137-.108-.181.365-.219.423a.771.771,0,0,0-.1.193c-.029.087-.073.069-.185.084s-.046.143-.1.209a2.42,2.42,0,0,0-.166.34c-.037.067-.132.452-.275.523s-.043.393-.151.46-.257.151-.292.173-.064.169-.013.182a.745.745,0,0,1-.131.145c-.031.027-.069-.027-.143.014a.268.268,0,0,0-.134.22c-.026.028,0,.107.021.13a1.246,1.246,0,0,0-.15.5c-.031-.011-.129.156-.179.2s-.107.15-.14.175c0,0-.1-.016-.124.014s.006.06-.056.082a.257.257,0,0,0-.113.035c-.064.035-.056.132-.045.175-.068-.018-.26.111-.3.143s-.122.047-.147.094.047.117.011.163-.218-.015-.274.151a.5.5,0,0,1-.313.312.284.284,0,0,0-.191.218c-.025-.036-.072-.064-.191-.043s-.1.147-.149.2-.154.074-.2.118-.07.141-.161.131a2.6,2.6,0,0,0-.374.074c-.089.008-.226.084-.17.33v0c-.113.261-.476.409-.625.488s-.258.012-.357.107c-.07.068-.031.193-.01.239-.235-.025-.347.168-.544.224s-.926.566-1.178.512-2.351,1.127-2.153,1.385a.622.622,0,0,0,.665.255,6.557,6.557,0,0,0,1.115-.427c.143-.1.066-.195.213-.227s.527-.087.571-.2-.019-.184.124-.234.917-.112,1.066-.142.057-.151.232-.209.615-.477.786-.442.177-.12.318-.087a2.667,2.667,0,0,0,1.034-.73c.071-.167.1-.09.185-.083s.143-.136.178-.207.058.034.125.068.136-.248.219-.31.184.047.294-.008a.3.3,0,0,0,.183-.183c.051-.106.02-.246.109-.2.031.113.19-.109.131-.111a1.012,1.012,0,0,1,.562-.33c.191,0,.227-.076.238-.162.021-.169.123-.241.246-.229s.285-.374.349-.463a.4.4,0,0,0,.035-.307c.031.026.039.031.133.033a.659.659,0,0,0,.362-.257c.044-.086,0-.224.024-.262.176.151.579-.387.63-.485a.277.277,0,0,0-.01-.221c.346.046.436-.85.536-1.093.052-.126.171-.289.207-.388a2.561,2.561,0,0,0,.009-.4c.039-.068.065.028.112-.068.14.043.153-.089.1-.176.049-.043.607-.94.409-.95-.093-.1.082-.213-.052-.284.078.016.143-.078.074-.128.12,0,.046-.115.151-.243s-.077-.291-.077-.291c.051-.044.155-.311.063-.4s.046-.2.171-.249-.226-.332-.071-.407.061-.393-.012-.447-.043-.2.091-.255S908.428,325.88,908.376,325.859Z" fill="#fff"/>
        </g>
        <g id="Grupo_17" data-name="Grupo 17">
          <path id="Trazado_38" data-name="Trazado 38" d="M896.175,330.9c-.015.078.078.138.124.069.006.208.442.091.5.053.041.059-.007.181.1.009.029.109.291.13.285.042.039-.025.076-.045.078.027s.168-.028.232.035.714.225.768-.042c-.006-.012.292.015.264.044.037.123.442-.093.461-.244s-.223-.327-.214-.479-.036-.235-.082-.264-.147.034-.227.013-.05-.2-.1-.253-.165,0-.165,0c-.015-.135-.128-.175-.216-.088-.056.025-.222-.112-.26-.075a.148.148,0,0,0-.127-.028c-.079.017-.1.12-.182.111s-.366-.28-.527-.2c0,0-.056-.1-.132-.1s-.063.1-.19.148c-.116,0-.378-.165-.459-.177s-.132.119-.209.089-.585-.319-.615-.463-.331-.067-.323-.2-.191.016-.25-.106a.533.533,0,0,0-.447-.284c-.25.01-.977-.565-1.152-.632s-.118-.179-.148-.2c-.064-.041-.137.014-.192-.057s-.28-.051-.351-.079a.348.348,0,0,1-.164-.193c-.023-.07-.166-.13-.191-.161a.084.084,0,0,0-.041-.069c-.038-.019-.031.038-.095.059-.046.015-.014-.078-.019-.123s-.094-.075-.148-.087-.181-.223-.154-.282a.241.241,0,0,0-.035-.2c-.03-.032-.158-.014-.2.033.062-.094.191-.4-.09-.317h0c-.149-.04-.306-.295-.442-.307.144-.122-.1-.112-.145-.086a.6.6,0,0,0,.1-.236c.008-.079-.137-.211-.188-.213s-.1.058-.145.027.008-.028.007-.119-.208.025-.178-.109-.125-.256-.083-.35a.251.251,0,0,0-.321-.144h0c-.27-.1-.345-.372-.486-.564.023.031-.165-.536-.226-.372a.388.388,0,0,0-.114.041c.011-.122-.183-.412-.217-.507a1.384,1.384,0,0,0-.571-.962c.077-.055-.768-2.356-1.224-2.2l-.03.028c-.1.07-.031.192-.054.327-.029.168-.1.225-.085.356a3.558,3.558,0,0,0,.473,1.108c.254,0,.157.94.458.767-.224.252.2,1.253.3,1.2.192-.107.709,2.3,1.3,2.035-.047.049.08.087.089.089a.094.094,0,0,0,.114.144c-.005.007.137.422.326.414s.073.228.156.3a2.017,2.017,0,0,1,.152.153c.031.03.114-.005.082.087-.057.166.263.075.312.145s.065.51.243.665c.035.03.053.143.106.17s.208-.085.222,0-.049.149-.011.237a1.152,1.152,0,0,0,.656.219.16.16,0,0,0-.036.222,1.289,1.289,0,0,0,.384.316s.524.709.709.5c.128.387.624.219,1,.383.119.051.29.38.372.433.321.21.328-.112.52.068a5.8,5.8,0,0,0,1.085.478C896.053,331.041,896.109,331.038,896.175,330.9Z" fill="#fff"/>
        </g>
      </g>
      <g id="Grupo_23" data-name="Grupo 23">
        <g id="Grupo_19" data-name="Grupo 19">
          <path id="Trazado_39" data-name="Trazado 39" d="M915.157,337.861c-.137-.11.106-.6-.217-.469.42-.271-.5-2.278-.646-2.2-.011.012.024-.207-.128-.2s-.144-.187-.161-.255.045-.057-.012-.151-.223-.036-.224-.035c-.029.032-.208-.7-.255-.7a.283.283,0,0,0-.341-.232c.158-.167-.439-.944-.607-.734.044-.293-.4-.278-.654-.325-.01,0-.31-.156-.47-.056s-.057-.115-.17-.2-.5-.368-.649-.084c.049-.147-.266-.119-.376-.042a2.5,2.5,0,0,0-1.018-.06c-.239.1-.931.9-.544,1.051.061.023.25-.1.292-.137-.039.169.319.34.378.371a2.248,2.248,0,0,0,.785.006c.1.057.294.012.45.055s-.024.209.1.309c.1.085.2-.117.257-.006s.091.286.24.127c.007.187.093.233.238.166.3-.323.356.39.545.485s.376-.084.5-.052.293.19.277.225a.323.323,0,0,0-.143.184c-.015.1.209.122.233.193s.15-.034.195.037.027.309.177.4.032.2.034.357.156.244.174.348.01.125.231.042c.318.18.1.343.191.5.04.069.246-.091.269.006a13.6,13.6,0,0,1,.73,2.063c-.031.293.47.09.379,0S915.294,337.972,915.157,337.861Z" fill="#fff"/>
        </g>
        <g id="Grupo_20" data-name="Grupo 20">
          <path id="Trazado_40" data-name="Trazado 40" d="M887.648,311.593a.317.317,0,0,1,.168.262c-.1.175,0,.237.047.251s.136.1.073.325a.921.921,0,0,0,.179.748.255.255,0,0,1,.048.244c-.038.217.152.183.149.3a.734.734,0,0,0,.188.368c.067.084.261.2.259.251s0,.075.1.1.087.226.15.233a.194.194,0,0,1,.1.032c.07.1.066.216.108.273s.086.061.065.1c-.034.08.112.026.1.07-.021.13.04.163.158.109.075-.037.171.043.147.085-.039.233.157.277.221.3s.111-.008.1.1c.025.15.159.153.3.216a1.908,1.908,0,0,0,.733.108c.127-.036.366-.107.461.043s.708.1.8.067a6.49,6.49,0,0,0,.7-.335c.075-.056.139.009.208-.044s.093-.1.144-.116.224-.086.24-.2h0a3.405,3.405,0,0,0,.034-.343c0-.076-.037-.317-.037-.317-.014-.116-.184-.285-.322-.229a.182.182,0,0,1-.1.06c-.061.011-.167-.033-.337-.033-.308.03-.722.229-.844.221a6.958,6.958,0,0,1-.857-.246,2,2,0,0,1-.26-.207c-.047-.032,0-.079-.154-.136-.142-.052-.214-.074-.278-.009a.463.463,0,0,1-.34-.078c-.062-.055-.051-.548-.255-.588-.3-.06-.271-.351-.358-.376s-.142-.007-.1-.092.038-.339-.178-.236c0,0-.27-.252-.214-.316.083-.105-.232-.377-.232-.377-.008-.2-.268-.346-.292-.439s.036-.075.067-.15-.183-.293-.275-.481a3.259,3.259,0,0,0-.207-.419c-.014-.023-.071-.1-.251.016h0c-.082.046-.064.057-.119.093-.2.115-.118.224-.118.224a.231.231,0,0,0-.075.255A.24.24,0,0,0,887.648,311.593Z" fill="#fff"/>
        </g>
        <g id="Grupo_21" data-name="Grupo 21">
          <path id="Trazado_41" data-name="Trazado 41" d="M909.423,315.727a1.054,1.054,0,0,0,.611.51h0c.016.006.21.093.285.032.042-.033-.018-.109.071-.2a1.821,1.821,0,0,0,.188-.318c.058-.084.076-.143-.019-.252-.046-.053.034-.175.033-.258,0-.28.089-.21.1-.27a1.274,1.274,0,0,0-.025-.281c-.009-.124.038-.3.156-.269s.176-.1.181-.209.24-.091.153-.283.24-.186.324-.378a.61.61,0,0,0,.044-.345c0-.119.081-.151.113-.192s-.011-.128.065-.126c0,0,.106.011.143-.038s.454-.073.3-.314c.036-.134.127-.117.187-.19s.1.04.276-.147c.049-.052.287-.262.675-.647.083-.083.459-.123.616-.183.119-.046.315-.175.569-.29.126-.057.244-.108.249-.188,0-.021.124,0,.132-.016.017-.034,0-.043-.012-.112a.212.212,0,0,0-.234-.194c-.054,0-.058-.045-.107-.044s-.063.034-.1.044c-.111.032-.229.035-.355.063-.148.034-.207.159-.43.135-.168-.018-.553.337-.819.149-.143-.1-.929.144-.933.4,0,.126-.229.078-.329.241-.115-.036-.157.028-.255.116s-.025.229-.024.23c.025.019-.157,0-.323.077a.376.376,0,0,0-.175.238.5.5,0,0,0-.345.177c-.051.057-.456.316-.242.626,0,0-.555.281-.438.748.066.261-.259.485-.3,1a.309.309,0,0,0-.015.315c.053.083-.108.235.034.508C909.4,315.576,909.357,315.654,909.423,315.727Zm.751-2.552Z" fill="#fff"/>
        </g>
        <g id="Grupo_22" data-name="Grupo 22">
          <path id="Trazado_42" data-name="Trazado 42" d="M892.929,333.662a1.331,1.331,0,0,0,.192-.728c0-.115-.016-.1.1-.412s.226-1.241-.917-.909c-.091.022-.277.034-.349.132s.055.128.1.286-.042.288-.1.489-.141.505-.193.66-.082.147-.179.156-.154.208-.159.593c0,.3-.257.2-.311.317s-.148.226-.115.328-.142.154-.172.218a.732.732,0,0,1-.116.208c-.07.084-.205.035-.363.08s-.2.246-.25.27-.062-.053-.16-.014-.062.127-.121.176-.239-.27-.309-.064-.657.158-.431.643c-.179-.114-.683.335-.766.349a1.675,1.675,0,0,0-1,.364c-.424.448,1.317.224,1.259.064.148.261,1.27-.07,1.484-.169.283-.131.58-.59.827-.486s.258-.091.313-.2-.067-.2-.084-.216a1.114,1.114,0,0,0,.537-.075.157.157,0,0,0,.1-.179c-.008-.085.457-.022.362-.232s-.054-.439.1-.431c.131.006.342-.147.358-.467S892.371,334.263,892.929,333.662Z" fill="#fff"/>
        </g>
      </g>
      <g id="Grupo_28" data-name="Grupo 28">
        <g id="Grupo_24" data-name="Grupo 24">
          <path id="Trazado_43" data-name="Trazado 43" d="M909,324.044a2.164,2.164,0,0,0,.174.349c.051,0,.138,0,.138,0,.056-.021.209.2.209.2a1.126,1.126,0,0,0,.07.376c.214-.056.079.2.32.12h0c.273.084.365.369.515.552-.023-.027.075.359.254.36.1,0,.114-.019.157.018a3.772,3.772,0,0,1,.221.426,1.33,1.33,0,0,0,.7.893,4.789,4.789,0,0,0,1.119,1.527c.247.241.467.466.592.378h0c.169-.216.037-.61-.049-.833-.045-.117-.505-.817-.685-.855s-.347-.677-.579-.666c.319-.015-.495-.97-.467-1.17s-.332-.509-.461-.581-.115-.2-.121-.395-.34-.836-.741-.909c.068.013-.213-.355-.285-.322-.017-.048-.122-.4-.234-.312a1.1,1.1,0,0,0,.01-.2c-.032-.1-.14-.084-.221-.17s-.164-.073-.162-.172c0-.159-.2-.1-.243-.068-.006-.027,0-.48-.212-.585-.1-.051-.326-.266-.312-.452s-.39-.185-.434-.346-.249-.037-.271-.012c.2-.228-.094-.538-.139-.549s-.259.064-.3.042c.132-.144-.443-.735-.6-.565,0,0-.476-.676-.883-.492-.132.06-.518-.254-.593-.28a2.207,2.207,0,0,0-.389,0c-.069-.036-.159-.257-.243-.2-.06-.065-.965-.491-.959-.339-.091.1-.367-.051-.408.023-.026-.206-.475-.039-.53,0-.051-.047-.173-.183-.254.008-.048-.1-.442-.061-.42.024a1.754,1.754,0,0,1-.37.024c-.01-.042-.4-.045-.411.131.011.015-.286.027-.258-.009-.041-.106-.431.118-.483.215-.125.231-.059.325,0,.542l.08.279c.089.3.365.06.519-.138.018.083.063.163.15.112a1.55,1.55,0,0,0,.231.212c0,.008.279.006.279.006.071-.1.128-.071.172.017l.082.019a.4.4,0,0,0,.076-.122c.028.128.177-.008.187-.044.046.286.5.149.5.149.091-.044.182-.055.3-.113,0,0,.306.019.405.155l.115.037c.083-.084.136.024.232-.1-.1.146.354.235.39.191.027.091.077.174.18.083a.966.966,0,0,1,.074.181.286.286,0,0,0,.438.2.362.362,0,0,0,.44.273s.142.013.181-.051a.675.675,0,0,0,.357.217c-.033.125.082.209.2.243-.009.019.142.088.252.181-.018.028.089.283.278.263a.4.4,0,0,0,.186.045c-.015.046.26.111.345.09a1.164,1.164,0,0,0,.261.353h0a.341.341,0,0,0,.111-.064.092.092,0,0,0,0,.106l.065.08c-.114.191.156.169.2.158-.017.052.244.438.228.5.059-.012-.056.319.231.24h0C908.683,323.589,909.059,323.875,909,324.044Z" fill="#fff"/>
        </g>
        <g id="Grupo_25" data-name="Grupo 25">
          <path id="Trazado_44" data-name="Trazado 44" d="M896.348,335.883c.176.157.511-.246.666-.2s.671-.275.751-.332.172-.287.31-.27a.7.7,0,0,0,.424-.206c.074-.075-.047-.182.017-.26a1.909,1.909,0,0,1,.877-.342c.19.04.169-.1.254-.162s.24-.3.355-.333.184-.217.279-.192.132-.094.276-.125.592-.772.807-.817.22-.2.28-.312.067-.081.163-.078.088-.121.112-.186.119,0,.167-.014.026-.13.106-.157.065-.114.132-.157a.405.405,0,0,0,.172-.2c.012-.072-.127-.091-.068-.161a2.615,2.615,0,0,1,.53-.292c.23-.012.127-.231.284-.25s.412-.494.432-.573a.164.164,0,0,0-.029-.161.21.21,0,0,0,.163.029.722.722,0,0,0,.351-.245c.081-.153-.029-.228.036-.323s.369-.139.474-.355c.027-.056-.035-.229-.053-.271s.053-.3.209-.331.872-1.1.484-1.288c-.1-.048.19-.149.3-.29s.505-.758.295-.781c-.095-.1-.031-.221-.015-.28s.118-.142.153-.223-.005-.1.022-.163-.046-.093-.046-.093a.116.116,0,0,0-.012-.21c.1.045.079-.3,0-.412a.39.39,0,0,1,.134-.467.242.242,0,0,0-.022-.415c-.018.006-.009-.177.143-.234s-.108-.185-.06-.382-.476-.317-.675-.336h0c-.12-.009-.116.031-.135.062-.271-.076-.343.563-.444.654s0,.147-.081.218-.046.294-.134.371.059.121.067.184.066.142.007.2-.294.321-.214.481a1.342,1.342,0,0,1,.039.321.733.733,0,0,1-.106.339c-.046.062-.117.136-.11.173,0,0-.137.543-.14.582-.065-.022-.1.156-.123.2s-.082-.029-.191.045a.275.275,0,0,0-.1.211h.011c-.2-.005-.1.168-.116.243s-.276.345-.276.433.076.053.06.186-.178.218-.2.361c-.126-.029-.123.3-.161.393s-.13,0-.236.073-.232.19-.24.293.056.122-.015.241a.5.5,0,0,0-.066.294c0,.1-.1.174-.194.272a.339.339,0,0,0-.124.229c-.005.084-.117.02-.178.044s-.013.075-.118.132-.242.16-.257.216,0,.138-.045.192-.422-.165-.3.112v0c-.018.165-.2.288-.133.387s-.046.178-.1.184-.106-.017-.192-.01a.328.328,0,0,0-.208.137c-.03.049-.015.073-.023.123s-.084.078-.114.114-.063.152-.129.14-.258.1-.336.116-.2.108-.088.338v0c-.022.141-.644.578-.678.662s-.029.18-.059.264a.714.714,0,0,1-.57.26c-.205-.044-1.041.479-.98.789.032.164-.589.743-.774.74a1.971,1.971,0,0,0-.866.665C896.219,335.913,896.291,335.843,896.348,335.883Z" fill="#fff"/>
        </g>
        <g id="Grupo_26" data-name="Grupo 26">
          <path id="Trazado_45" data-name="Trazado 45" d="M893.518,324.021c-.061-.03-.054-.077-.078-.127s-.088-.006-.123-.04-.029-.133-.047-.191-.122-.306-.344-.187l0,0c-.091-.01-.566-.648-.624-.658s-.172.036-.215.007-.311-.312-.244-.415-.3-.632-.606-.758a5.779,5.779,0,0,0-1.4-1.725c-.164.014.038.636-.042.725s.373.853.527.821.217.823.493.611c-.18.244.189.9.318.9s.078.076.089.167.6.412.566.561-.1.265.021.288.775.608.765.731.051.1.125.08.172.117.211.234.176.142.208.182a2.943,2.943,0,0,1,.165.249c.062.1.179.032.153.11s.091-.01.083.064a.083.083,0,0,0,.109.09.315.315,0,0,1,.185,0c.1.042.117.367.168.443s.171.022.154.08.154.071.167.138.241.2.366.333c.045.048.181-.1.272-.088s.075.34.187.449.143.063.208.078.21.2.21.2.262.405.443.15c.061.343.61.338.95.426.113.029.249.139.318.158s.212-.042.338-.028.115.08.183.2a2.2,2.2,0,0,0,.766.326c.156.038.428-.085.567-.041a1.544,1.544,0,0,1,.422.119c.1.075.272,0,.381-.057s.636.2.764.063.253.007.234.032c.035.119.379-.13.4-.251a1.616,1.616,0,0,0-.086-.684s-.048-.15-.1-.139a.5.5,0,0,0-.235.165.735.735,0,0,0-.116-.3.257.257,0,0,0-.18-.028c-.005-.132-.4-.114-.466-.105a.447.447,0,0,0-.211.164.233.233,0,0,0-.355-.248,1.158,1.158,0,0,0-.3.047.212.212,0,0,1-.176-.112.165.165,0,0,0-.2-.045c-.019-.034,0-.063-.093-.045s-.084.1-.221.051-.219-.2-.325-.162-.114-.1-.124-.177c-.013-.116-.071-.076-.126-.108s-.127-.061-.177-.092v.01c0-.191-.058-.248-.228-.1-.061-.174-.068-.324-.34-.246s-.95-.325-.9-.448-.118-.227-.2-.215-.159.083-.2.013-.1,0-.177.02c.01-.044-.252.032-.324-.017a2.5,2.5,0,0,1-.367-.2.21.21,0,0,1-.075-.169c0-.071-.075-.106-.145-.061,0-.047-.013-.06-.05-.04.009-.054-.116-.186-.117-.246a.163.163,0,0,0-.141-.17c-.046-.007-.027-.128-.079-.185s-.127,0-.236.008a.631.631,0,0,1-.35-.184c-.05-.056-.1-.079-.091-.168s-.015-.227-.062-.257S893.578,324.051,893.518,324.021Z" fill="#fff"/>
        </g>
        <g id="Grupo_27" data-name="Grupo 27">
          <path id="Trazado_46" data-name="Trazado 46" d="M907.287,310.881a.571.571,0,0,0-.324.043c-.038.016-.116.016-.151.034-.083.043-.106.167-.15.193s-.143.023-.243.077a3.988,3.988,0,0,0-.33.257,6.09,6.09,0,0,1-.524.4c-.127.061-.061.143-.145.2-.165.112-.189-.019-.289.023-.152.064-.169.219-.276.255s-.147-.075-.257-.049a2,2,0,0,0-.8.506c-.042.041-.1.19-.244.271-.323.181-.889.357-1.326.586a1.165,1.165,0,0,0-.527.633c-.124.206-.33.075-.423.22s-.039.237-.14.329-.186-.046-.249,0a.55.55,0,0,0-.189.194c-.046.1.038.2-.081.266-.047.028-.235-.068-.295.022s-.021.28-.12.376a2.792,2.792,0,0,1-.783.423c-.172.06-.349.782-.535.781s-.479.094-.495.211c-.077.535-.549.467-.636.913s-.46.755-.638,1.156c-.058.13-.181.291-.223.4a2.941,2.941,0,0,0-.024.409c-.041.07-.113.027-.218.116a4.624,4.624,0,0,0-.417,1.135c0,.112.1.162-.017.43a.777.777,0,0,0-.052.561.331.331,0,0,0-.065.159c-.006.076-.006.254.069.213-.112.061,0,.144-.069.373s-.186.687.065.826a.186.186,0,0,1,.093.133c0,.068-.074.116-.145.141-.156.053.042.48.134.552.217.17.362.118.7.085a.22.22,0,0,0,.218-.238c.007-.129-.032-.285-.027-.391.009-.206.229-.153.229-.305s0-.137,0-.284.09-.058.115-.223,0-.246-.065-.281c.132-.04.044-.24-.021-.212a.355.355,0,0,0,.146-.446c-.06-.156.03-.317-.012-.435a1.263,1.263,0,0,1,.165-.462c.132-.132.134-.238.008-.354-.058-.045.418-.536.475-.7.091-.267.157-.185.229-.212s.186-.066.054-.258a.469.469,0,0,0,.32-.559c-.06-.594.8-1.1.9-1.267a.967.967,0,0,0,.2-.613c.031.011.182-.078.179-.164.033.033.113-.073.15-.117s.017-.081-.018-.126c.048.024.153-.032.187-.068a.539.539,0,0,0,.069-.131.691.691,0,0,0,.483-.12c.063-.054.057-.245.135-.32s.247-.006.294-.238.365-.265.323-.416c.025.088.164-.072.1-.154a.243.243,0,0,0,.4-.023c.075-.1.016-.123.051-.246s.163-.072.243-.219.333.058.4-.092.21-.092.137-.337a.273.273,0,0,0,.226-.252c.027-.229,1.249-.651,1.4-.991a1.243,1.243,0,0,1,.737-.514c.237-.059.392-.268.556-.346.209-.1.341-.078.44-.152s.011-.184.182-.324c.188-.155.361-.393.431-.423.166-.071.213-.186.327-.239.08-.038.112-.042.135-.068a.892.892,0,0,0,.205-.371C907.706,310.8,907.534,310.911,907.287,310.881Z" fill="#fff"/>
        </g>
      </g>
    </g>
  </g>
</svg>
