<svg xmlns="http://www.w3.org/2000/svg" width="42.695" height="42.696" viewBox="0 0 42.695 42.696">
  <g id="ic_monumento_historico" transform="translate(9030.804 5448.162)">
    <g id="Grupo_15476" data-name="Grupo 15476">
      <path id="Trazado_20514" data-name="Trazado 20514" d="M50.544,282.534A21.348,21.348,0,1,0,29.2,261.186a21.348,21.348,0,0,0,21.348,21.348" transform="translate(-9060 -5688)" fill="#f53f5b"/>
    </g>
    <path id="Trazado_20516" data-name="Trazado 20516" d="M42.232,254.964l-1.722,1.483-1.5,1.3V272.7h8.3v-6.032a.457.457,0,0,1,.46-.464h5.535a.457.457,0,0,1,.46.464V272.7h8.305V257.742l-1.5-1.3-1.724-1.483-.008-.007L50.535,247.8l-8.295,7.156a.007.007,0,0,0-.008.007" transform="translate(-9060 -5688)" fill="#fff"/>
  </g>
</svg>
