<svg xmlns="http://www.w3.org/2000/svg" width="43.696" height="43.696" viewBox="0 0 43.696 43.696">
  <g id="ic_patrimonio_mundial" transform="translate(-879.523 -366.658)">
    <path id="Trazado_47" data-name="Trazado 47" d="M902,375.164a13.317,13.317,0,0,0-4.44,26.062l.006-5.049-7.928-7.789,11.511-11.475,11.685,11.471-8,7.8.009,5.14A13.316,13.316,0,0,0,902,375.164Z" fill="#e2762d"/>
    <path id="Trazado_48" data-name="Trazado 48" d="M901.371,366.658a21.848,21.848,0,1,0,21.848,21.848A21.848,21.848,0,0,0,901.371,366.658Zm2.464,37.943a1.765,1.765,0,0,1-.261.02,1.743,1.743,0,0,1-1.738-1.737l-.014-7.972,6.709-6.536-7.364-7.229-7.248,7.225,6.661,6.543-.01,8.027a1.644,1.644,0,0,1-1.912,1.62,16.326,16.326,0,1,1,5.177.039Z" fill="#e2762d"/>
  </g>
</svg>
