<svg id="santuario_naturaleza" xmlns="http://www.w3.org/2000/svg" width="30" height="30.003" viewBox="0 0 30 30.003">
  <path id="Trazado_20257" data-name="Trazado 20257" d="M15.71,30.713a15,15,0,1,0-15-15,15,15,0,0,0,15,15" transform="translate(-0.71 -0.71)" fill="#0fac83"/>
  <path id="Trazado_20258" data-name="Trazado 20258" d="M35.09,28.512A8.8,8.8,0,0,0,37.7,25.787c2.677-3.188,1.216-7.42,1.216-7.42L38.089,19.7l1.168-2.409-.607-1.387-1.24,2.116.876-2.968-.95-1.192-.607,2.8-.1-3.042L34.518,12.45c2.188,3.479-.146,8-.413,8.514S30.869,26,30.869,26a.48.48,0,0,0-.035.051,2.308,2.308,0,0,0-1.906.95c-.176-.237-.319-.724-.447-.91a1.561,1.561,0,0,0-.673-.463,1.3,1.3,0,0,0-1.081.152s-.9-.274-.966,1.014c0,0,.248-.322.484-.333,0,0,.085.966.814,1.11s1.086-.032,1.347.181a2.734,2.734,0,0,1,.242.594c.008.029.019.059.029.09v0a2.912,2.912,0,0,0,.237.482c-.016.029-.027.053-.035.067a5,5,0,0,1-2.334,2.3c-1.623.838-4.477.255-4.477.255v.08c.2.625,1.184,1.77,3.636,2.1a7.281,7.281,0,0,0,5.35-1.49,2.853,2.853,0,0,1,1.863-.932c.852-.133,1.844.785,1.844.785a11.218,11.218,0,0,0,1.291-.365L35.1,31.04l1.637.413a6.579,6.579,0,0,0,1.12-1.168l-1.946-.511,2.457-.218A3.1,3.1,0,0,0,38.7,28.24a13.009,13.009,0,0,1-3.614.271" transform="translate(-16.293 -9.325)" fill="#fff"/>
</svg>
