<svg xmlns="http://www.w3.org/2000/svg" width="42.516" height="42.516" viewBox="0 0 42.516 42.516">
  <g id="ic_sello_artesania" transform="translate(-880.113 -176.103)">
    <path id="Trazado_7" data-name="Trazado 7" d="M901.371,218.619a21.258,21.258,0,1,0-21.258-21.258,21.257,21.257,0,0,0,21.258,21.258" fill="#4fc4b5"/>
    <path id="Trazado_8" data-name="Trazado 8" d="M891.236,194.313c.032-.8.326-1.367,1.072-1.29.261,0,.818.036.818.424v1.032c0,.362-.046.945-.046.945-.064.589-.973.674-1.3.538-.582-.249-.559-1.406-.549-1.649M912.9,202.17c0-2.026-.547-3.28-3.541-5.9a7.831,7.831,0,0,1-.668-3.828c0-2.615,1.576-4.427,1.576-6.49a2.49,2.49,0,0,0-2.509-2.191c-2.516,0-5.808,2.995-6.615,2.995-1.2,0-1.829-.378-3.836-.378-2.1,0-4.3,1.637-4.3,2.923a5.867,5.867,0,0,0,.848,2.239,2.607,2.607,0,0,0-1.676-.635,3.029,3.029,0,0,0-3.208,3.138c0,3.244,2.669,3.3,2.381,5.96a6.9,6.9,0,0,0-.818,3.212c0,5.1,5.918,7.7,10.625,7.7,5.109,0,10.693-1.54,11.5-7.213a.593.593,0,0,1,.03-.093,5.456,5.456,0,0,0,.136-.577l-.005,0a5.059,5.059,0,0,0,.079-.855" fill="#fff"/>
    <path id="Trazado_9" data-name="Trazado 9" d="M908.165,185.978v0l-.009,0a1.363,1.363,0,0,0-.95-.3,1.2,1.2,0,0,1,.383.121l-.383-.121-.452,0a14.51,14.51,0,0,0-1.99.843,10.63,10.63,0,0,1-2.243.94,21.669,21.669,0,0,1-2.3.354,13.057,13.057,0,0,0-1.3-.134h-.021a7.133,7.133,0,0,0-.84,0c-2.159.151-3.673.982-3.673,1.885,0,.812.894,2.447,1.417,2.447.645,0,1.719-2.147,5.224-2.758,3.139-.546,7.338-1.1,7.338-2.738a.754.754,0,0,0-.2-.536" fill="#4fc4b5"/>
  </g>
</svg>
