<svg xmlns="http://www.w3.org/2000/svg" width="42.695" height="42.696" viewBox="0 0 42.695 42.696">
  <g id="ic_tesoros_humanos" transform="translate(9030.804 5507.991)">
    <path id="Trazado_20512" data-name="Trazado 20512" d="M50.544,222.705A21.348,21.348,0,1,0,29.2,201.357a21.348,21.348,0,0,0,21.348,21.348" transform="translate(-9060 -5688)" fill="#9958b4"/>
    <path id="Trazado_20518" data-name="Trazado 20518" d="M52.08,201.4s3.373-4.646,3.206-8.9-6.009-6.628-6.009-6.628a13.8,13.8,0,0,1-1.052,3.936,4.8,4.8,0,0,0-.592,2.75c.023.3.164.679.212.975.433,2.651,3.772,4.615,3.772,4.615a5.693,5.693,0,0,1-.516,2.485l-.115.112s-3.387-4.627-7.486-5.8-8.016,4.076-8.016,4.076a17.353,17.353,0,0,1,3.41,2.23,5.007,5.007,0,0,0,3.43,1.37c2.632.119,5.552-1.984,5.552-1.984s.484-.321,2.017.864l.079.115s-5.42,1.89-7.748,5.461,1.069,8.883,1.069,8.883a17.312,17.312,0,0,1,3.134-2.6,6.841,6.841,0,0,0,2.464-2.819c1.467-2.25-.407-5.947-.407-5.947a5.688,5.688,0,0,1,1.858-1.728l.046-.047s-.033,5.729,2.632,9.057,8.92,1.7,8.92,1.7a17.319,17.319,0,0,1-1.492-3.791,6.793,6.793,0,0,0-2.19-3.579c-2.252-1.891-5.493-1.115-5.493-1.115a7.021,7.021,0,0,1-.913-2.28c-.021-.072-.067-.179-.067-.179s5.337,1.614,9.145.314c4.035-1.377,4.673-7.98,4.673-7.98a17.279,17.279,0,0,1-4.067.232,6.848,6.848,0,0,0-3.657.8c-2.516.939-3.205,5.026-3.205,5.026a5.672,5.672,0,0,1-2.521.287" transform="translate(-9060 -5688)" fill="#fff"/>
  </g>
</svg>
