<svg id="zona_tipica" xmlns="http://www.w3.org/2000/svg" width="30" height="30.003" viewBox="0 0 30 30.003">
  <path id="Trazado_20264" data-name="Trazado 20264" d="M15.71,30.713a15,15,0,1,0-15-15,15,15,0,0,0,15,15" transform="translate(-0.71 -0.71)" fill="#ffd104"/>
  <path id="Trazado_20265" data-name="Trazado 20265" d="M15.98,36l-.813.7-.707.612v7.062h3.922V41.528a.217.217,0,0,1,.217-.22h2.614a.215.215,0,0,1,.217.22v2.849h3.922V37.315l-.707-.612-.813-.7,0,0L19.9,32.62,15.983,36a0,0,0,0,0,0,0" transform="translate(-10.819 -24.004)" fill="#fff"/>
  <path id="Trazado_20266" data-name="Trazado 20266" d="M59.32,36l-.813.7-.707.612v7.062h3.922V41.528a.217.217,0,0,1,.217-.22h2.614a.215.215,0,0,1,.217.22v2.849h3.922V37.315l-.707-.612-.813-.7,0,0L63.242,32.62,59.325,36c-.005,0-.005,0-.005,0" transform="translate(-42.33 -24.004)" fill="#fff"/>
</svg>
