<svg id="logo_ministerio" xmlns="http://www.w3.org/2000/svg" width="100.76" height="88.875" viewBox="0 0 100.76 88.875">
  <path id="Trazado_1" data-name="Trazado 1" d="M155.875,340.265a3.721,3.721,0,0,1-1.667.411c-1.337,0-1.964-.939-1.964-2.354,0-1.356.673-2.275,2.07-2.275a2.508,2.508,0,0,1,1.467.4l-.37.656a2,2,0,0,0-1.09-.285c-.8,0-1.165.608-1.165,1.494,0,1.052.384,1.627,1.138,1.627a1.889,1.889,0,0,0,.78-.158v-.82h-.616l-.046-.643h1.463Z" transform="translate(-106.575 -258)" fill="#fff"/>
  <path id="Trazado_2" data-name="Trazado 2" d="M159.489,338.984c0,1.1-.557,1.692-1.522,1.692s-1.522-.582-1.522-1.692a1.53,1.53,0,1,1,3.044,0m-.888,0c0-.781-.231-1.053-.634-1.053s-.628.278-.628,1.053c0,.754.2,1.057.628,1.057s.634-.284.634-1.057" transform="translate(-106.689 -258)" fill="#fff"/>
  <path id="Trazado_3" data-name="Trazado 3" d="M160.938,337.7a1.143,1.143,0,0,1,.859-.4c.762,0,1.309.543,1.309,1.681,0,1.117-.661,1.692-1.415,1.692a1.066,1.066,0,0,1-.939-.457l-.159.39h-.462v-4.562H161v1.13Zm.059,2.012a.786.786,0,0,0,.589.33c.376,0,.655-.277.655-1.057s-.245-1.046-.642-1.046a.917.917,0,0,0-.6.258Z" transform="translate(-106.794 -258)" fill="#fff"/>
  <path id="Trazado_4" data-name="Trazado 4" d="M164.027,340.609V338l-.37-.079v-.555h1.229v3.239ZM164,336.047h.874v.786H164Z" transform="translate(-106.867 -258)" fill="#fff"/>
  <path id="Trazado_5" data-name="Trazado 5" d="M166.415,339.221a.735.735,0,0,0,.834.8,2.213,2.213,0,0,0,.946-.278l.165.609a2.6,2.6,0,0,1-1.216.324,1.505,1.505,0,0,1-1.6-1.693c0-1,.476-1.68,1.514-1.68.979,0,1.369.727,1.369,1.542v.376Zm.6-1.283c-.429,0-.6.39-.6.773H167.6c0-.416-.131-.773-.582-.773" transform="translate(-106.949 -258)" fill="#fff"/>
  <path id="Trazado_6" data-name="Trazado 6" d="M170.922,338.09a1.434,1.434,0,0,0-.4-.052.928.928,0,0,0-.581.219v2.352h-.86V337.37h.6c.033.151.066.292.093.435h.026a.866.866,0,0,1,.773-.495,1.4,1.4,0,0,1,.371.046c-.007.245-.007.49-.019.734" transform="translate(-107.033 -258)" fill="#fff"/>
  <path id="Trazado_7" data-name="Trazado 7" d="M173.456,340.609v-1.924c0-.489-.187-.72-.582-.72a1.061,1.061,0,0,0-.57.2v2.446h-.866V337.37h.6l.133.369a1.342,1.342,0,0,1,1.025-.436c.82,0,1.143.483,1.143,1.3v2Z" transform="translate(-107.119 -258)" fill="#fff"/>
  <path id="Trazado_8" data-name="Trazado 8" d="M177.955,338.984c0,1.1-.557,1.692-1.523,1.692s-1.521-.582-1.521-1.692a1.53,1.53,0,1,1,3.044,0m-.887,0c0-.781-.233-1.053-.636-1.053s-.626.278-.626,1.053c0,.754.2,1.057.626,1.057s.636-.284.636-1.057" transform="translate(-107.223 -258)" fill="#fff"/>
  <path id="Trazado_9" data-name="Trazado 9" d="M182.157,337.621a1.927,1.927,0,0,1-.082-.6v-.979h.862v4.562h-.7l-.1-.356a1.05,1.05,0,0,1-.86.423c-.734,0-1.323-.529-1.323-1.686,0-1.072.609-1.687,1.4-1.687a1.054,1.054,0,0,1,.808.318m-.082.489a1.148,1.148,0,0,0-.587-.159c-.41,0-.669.279-.669,1.033,0,.773.247,1.064.657,1.064a.846.846,0,0,0,.6-.278Z" transform="translate(-107.367 -258)" fill="#fff"/>
  <path id="Trazado_10" data-name="Trazado 10" d="M184.466,339.221a.734.734,0,0,0,.832.8,2.226,2.226,0,0,0,.948-.278l.164.609a2.6,2.6,0,0,1-1.217.324,1.5,1.5,0,0,1-1.6-1.693c0-1,.476-1.68,1.514-1.68.979,0,1.369.727,1.369,1.542v.376Zm.6-1.283c-.43,0-.6.39-.6.773h1.183c0-.416-.132-.773-.582-.773" transform="translate(-107.47 -258)" fill="#fff"/>
  <path id="Trazado_11" data-name="Trazado 11" d="M190.414,340.676c-1.257,0-1.925-.845-1.925-2.334,0-1.37.662-2.3,1.925-2.3a2.8,2.8,0,0,1,1.521.377l-.332.687a1.924,1.924,0,0,0-1.1-.3c-.74,0-1.11.55-1.11,1.528,0,1.032.37,1.581,1.1,1.581a2.071,2.071,0,0,0,1.179-.41l.277.695a2.637,2.637,0,0,1-1.533.475" transform="translate(-108.012 -258)" fill="#fff"/>
  <path id="Trazado_12" data-name="Trazado 12" d="M192.544,340.609v-4.562h.866v1.2a1.957,1.957,0,0,1-.084.5,1.117,1.117,0,0,1,.916-.442c.935,0,1.2.483,1.2,1.3v2h-.879v-1.924a.33.33,0,0,0-.047-.2.486.486,0,0,0-.535-.522,1.061,1.061,0,0,0-.57.2v2.446Z" transform="translate(-108.116 -258)" fill="#fff"/>
  <path id="Trazado_13" data-name="Trazado 13" d="M196.408,340.609V338l-.371-.079v-.555h1.23v3.239Zm-.027-4.562h.874v.786h-.874Z" transform="translate(-108.116 -258)" fill="#fff"/>
  <path id="Trazado_14" data-name="Trazado 14" d="M198.056,339.75v-3.7h.853V339.7c0,.272.164.312.522.312v.609a2.75,2.75,0,0,1-.476.052c-.661,0-.9-.35-.9-.926" transform="translate(-108.116 -258)" fill="#fff"/>
  <path id="Trazado_15" data-name="Trazado 15" d="M200.742,339.221a.735.735,0,0,0,.833.8,2.213,2.213,0,0,0,.946-.278l.164.609a2.6,2.6,0,0,1-1.215.324,1.505,1.505,0,0,1-1.6-1.693c0-1,.476-1.68,1.515-1.68.979,0,1.369.727,1.369,1.542v.376Zm.6-1.283c-.43,0-.6.39-.6.773h1.184c0-.416-.133-.773-.582-.773" transform="translate(-108.116 -258)" fill="#fff"/>
  <path id="Trazado_16" data-name="Trazado 16" d="M204.4,252.319H105.208v1.514l0,85.847v1.513H205.968V339.68l0-85.847v-1.514Zm-97.627,1.514h39.213l0,85.847H106.776ZM204.4,339.68H147.554l0-85.847H204.4Z" transform="translate(-105.208 -252.319)" fill="#fff"/>
  <g id="Grupo_5" data-name="Grupo 5" transform="translate(6.163 6.198)">
    <g id="Grupo_4" data-name="Grupo 4">
      <g id="Grupo_3" data-name="Grupo 3">
        <path id="Trazado_17" data-name="Trazado 17" d="M128.254,266.453a.4.4,0,0,0,.128-.548c-.074-.145-.267-.159-.183-.176,1.032-.243,1.583-1.748,1.552-2.326a2.052,2.052,0,0,0,2.583-.105,1.844,1.844,0,0,0-.127-2.655,1.684,1.684,0,0,0-1.894.026.96.96,0,0,0-.786-.495,1.908,1.908,0,0,0-.39-1.22,1.978,1.978,0,0,0-2.492.01,1.752,1.752,0,0,0-2.319,1.851,3.031,3.031,0,0,0-1.538-.258,1.8,1.8,0,0,0-1.018.583,2.476,2.476,0,0,0-.227.36,1.7,1.7,0,0,0,.585,2.186,2.722,2.722,0,0,0,1.581.234,1.176,1.176,0,0,0,.648-.358c.067-.069.116-.179.215-.18a1.275,1.275,0,0,0,.817,1.3c0,.037.016.073.025.129a1.18,1.18,0,0,0,1.012,1.018.416.416,0,0,0-.109.623,2.813,2.813,0,0,1,1.937,0Z" transform="translate(-111.371 -258.517)" fill="#fff"/>
        <g id="Grupo_2" data-name="Grupo 2" transform="translate(0 3.283)">
          <path id="Trazado_18" data-name="Trazado 18" d="M127.171,267.536l-.652,2.154H124.2l.007,0,1.881,1.346-.719,2.128,1.8-1.37,1.806,1.37-.72-2.128,1.881-1.347h-2.315Z" transform="translate(-111.371 -261.8)" fill="none"/>
          <path id="Trazado_19" data-name="Trazado 19" d="M130.7,269.7a3.222,3.222,0,0,1,.734-1.923.3.3,0,0,0,.083-.232.239.239,0,0,0-.108-.169c-.208-.14-.675-.426-.675-.426l-.038-.033h-.04c-.05,0-.089.03-.153.078a1.2,1.2,0,0,1-.789.285,1.714,1.714,0,0,1-.231-.017,2.6,2.6,0,0,1-.587-.218c-.121-.063-.27-.128-.331-.156l-.027-.01a3.061,3.061,0,0,0-2.514,0l-.027.01-.151.069-.367.174a1.73,1.73,0,0,1-.4.131,1.667,1.667,0,0,1-.231.017,1.213,1.213,0,0,1-.79-.285c-.064-.048-.1-.078-.152-.078l-.036,0-.022.014s-.479.295-.677.432a.25.25,0,0,0-.123.18.282.282,0,0,0,.083.23,3.241,3.241,0,0,1,.734,1.94,2.848,2.848,0,0,1-.482,1.731,2.03,2.03,0,0,0,1.991,3.059c.119,0,1.2.02,1.566.708.016.028.189.3.258.438l.084.165.082-.165c.07-.133.24-.406.266-.444.364-.682,1.44-.7,1.56-.7a2.029,2.029,0,0,0,1.99-3.059A2.858,2.858,0,0,1,130.7,269.7Zm-.565-.01-1.881,1.348.72,2.128-1.806-1.37-1.8,1.37.719-2.128-1.881-1.346-.007,0h2.321l.652-2.154.652,2.154h2.315Z" transform="translate(-111.371 -261.8)" fill="#fff"/>
          <g id="Grupo_1" data-name="Grupo 1">
            <path id="Trazado_20" data-name="Trazado 20" d="M120.876,280.072a2.45,2.45,0,0,0,2.51.469c.237-.035.36-.765.421-1.331a21.506,21.506,0,0,1-2.581-.485A5.69,5.69,0,0,0,120.876,280.072Z" transform="translate(-111.371 -261.8)" fill="none"/>
            <path id="Trazado_21" data-name="Trazado 21" d="M120.6,275.619a.275.275,0,0,0-.113-.071c-.13-.023-.221.088-.371.057a15.232,15.232,0,0,1-1.255-.885,3.166,3.166,0,0,1-.762-.6c-.113-.156-.023-.357-.046-.549a.786.786,0,0,0-.472-.568,2.463,2.463,0,0,1-1.929,1.807,4.576,4.576,0,0,0,.284,2.434.8.8,0,0,1,.362.177,1.529,1.529,0,0,1,.094-.488,1.157,1.157,0,0,1,1.327-.557.577.577,0,0,1,.394.388c.126.641-.406.7-.406.7-.381.019-.389-.291-.389-.291-.047-.3.378-.314.378-.314-.359-.628-1.487.4-.748,1.309.076.092.146.031.146.031a9.026,9.026,0,0,0,2.584-1.569,9.666,9.666,0,0,1,1.1-.861A1.571,1.571,0,0,1,120.6,275.619Z" transform="translate(-111.371 -261.8)" fill="none"/>
            <path id="Trazado_22" data-name="Trazado 22" d="M131.126,266.743l.133.106Z" transform="translate(-111.371 -261.8)" fill="none"/>
            <path id="Trazado_23" data-name="Trazado 23" d="M131.841,267.3c-.074-.055-.156-.119-.239-.182.086.066.164.126.239.182Z" transform="translate(-111.371 -261.8)" fill="none"/>
            <path id="Trazado_24" data-name="Trazado 24" d="M131.337,266.91l.223.173Z" transform="translate(-111.371 -261.8)" fill="none"/>
            <path id="Trazado_25" data-name="Trazado 25" d="M120.436,279.688a2.106,2.106,0,0,0,.161-.475,3.737,3.737,0,0,1,.211-.585c-.242-.068-.474-.151-.711-.228A3.142,3.142,0,0,0,120.436,279.688Z" transform="translate(-111.371 -261.8)" fill="none"/>
            <path id="Trazado_26" data-name="Trazado 26" d="M130.925,279.212c.06.565.184,1.294.42,1.329a2.45,2.45,0,0,0,2.51-.469,5.726,5.726,0,0,0-.348-1.345A21.768,21.768,0,0,1,130.925,279.212Z" transform="translate(-111.371 -261.8)" fill="none"/>
            <path id="Trazado_27" data-name="Trazado 27" d="M134.133,279.213a2.172,2.172,0,0,0,.162.475,3.12,3.12,0,0,0,.337-1.283c-.235.076-.468.158-.709.225A3.891,3.891,0,0,1,134.133,279.213Z" transform="translate(-111.371 -261.8)" fill="none"/>
            <path id="Trazado_28" data-name="Trazado 28" d="M123.066,277.176a1.672,1.672,0,0,0-1.151.473c.559.129,1.213.247,1.936.349A.836.836,0,0,0,123.066,277.176Z" transform="translate(-111.371 -261.8)" fill="none"/>
            <path id="Trazado_29" data-name="Trazado 29" d="M133.2,277.557c.446-.112.849-.223,1.164-.322a2.214,2.214,0,0,0-.231-.376,3.089,3.089,0,0,0-3.522-.67c-.047.016.1.381.722.518A3.3,3.3,0,0,1,133.2,277.557Z" transform="translate(-111.371 -261.8)" fill="none"/>
            <path id="Trazado_30" data-name="Trazado 30" d="M131.666,277.176s-.665-.01-.787.824c.724-.1,1.38-.22,1.939-.348A1.664,1.664,0,0,0,131.666,277.176Z" transform="translate(-111.371 -261.8)" fill="none"/>
            <path id="Trazado_31" data-name="Trazado 31" d="M125.32,276.648a.555.555,0,0,0-.4-.228c-.327,0-.393.758-.488,1.659.692.08,1.465.127,2.283.149C126.368,277.513,125.6,277.041,125.32,276.648Z" transform="translate(-111.371 -261.8)" fill="none"/>
            <path id="Trazado_32" data-name="Trazado 32" d="M120.6,276.859a2.251,2.251,0,0,0-.229.372c.315.1.718.211,1.165.324a3.3,3.3,0,0,1,1.865-.848c.622-.137.766-.5.722-.518A3.091,3.091,0,0,0,120.6,276.859Z" transform="translate(-111.371 -261.8)" fill="none"/>
            <path id="Trazado_33" data-name="Trazado 33" d="M129.808,276.42a.552.552,0,0,0-.4.228c-.285.393-1.05.865-1.4,1.58.818-.021,1.59-.069,2.283-.149C130.2,277.178,130.135,276.417,129.808,276.42Z" transform="translate(-111.371 -261.8)" fill="none"/>
            <path id="Trazado_34" data-name="Trazado 34" d="M143.286,278.64c-.236-.285-.861-.143-.861-.143a.926.926,0,0,0-.588-1.267.809.809,0,0,0-.69.071l-.01.007-.006.007a.382.382,0,0,0-.066.053.488.488,0,0,0-.135.334.481.481,0,0,0,.949.108.474.474,0,0,1,.177.224c.269.853-.69,1.159-.69,1.159a3.748,3.748,0,0,1-3.412-.457l.371-.2a.813.813,0,0,1,.335-.073.289.289,0,0,0-.007.063.42.42,0,0,0,.84,0,.394.394,0,0,0-.085-.258c-.247-.373-1.1-.126-1.1-.126a1.54,1.54,0,0,0,.03-1.206,1.158,1.158,0,0,0-1.328-.557.575.575,0,0,0-.393.388c-.126.641.406.7.406.7.382.019.386-.291.386-.291.05-.3-.374-.314-.374-.314.357-.628,1.484.4.747,1.309-.077.092-.147.031-.147.031a14.954,14.954,0,0,1-2.293-1.321c-.031-.359-.346-.541-.285-.636.052-.021.238.072.342-.084.038-.057.124-.625.194-1.027a3.722,3.722,0,0,0,2.363.306.272.272,0,0,0,.187-.268c.018-.445-1.133-3.057-1.165-3.98.544.27.88-.569.978-.825.731.333.983,7.114,1.545,7.342.281.114.392-.347.418-.433a22.244,22.244,0,0,0,.876-6.953,18.9,18.9,0,0,0-.588-4.2c-.229-.784-.672-2.383-1.706-2.6a.735.735,0,0,0-.843.754c.007.351.25.521.142.866a2.934,2.934,0,0,0-.322.724c-.062.251.161.354.089.622-.327-.05-.49.238-1.005.106.335-.156.34-1.111-.071-1.275-.062-.025-.131-.034-.143-.09a1.308,1.308,0,0,0,.2-.278,1.279,1.279,0,0,0,.047-1.232c.17.015.348-.3.371-.547l0,0v-.021a1.162,1.162,0,0,1,.092-.488.134.134,0,0,0-.057-.173.131.131,0,0,0-.17.065c-.1.214-.344.1-.241-.12a.133.133,0,0,0-.058-.172.129.129,0,0,0-.168.063c-.1.206-.332.091-.235-.115a.125.125,0,1,0-.225-.107c-.1.212-.345.1-.243-.116a.134.134,0,0,0-.057-.175.132.132,0,0,0-.168.064,1,1,0,0,1-.295.408c-.229.04-.168.3-.141.482a.618.618,0,0,0-.763.526h-.048c-.354.008-.692.191-.666.517a.572.572,0,0,0,.312.418c.038-.012-.019-.2.165-.208a.484.484,0,0,1,.448.293c.036.181-.113.619.465.683,0,0-.005.089-.013.183a1.616,1.616,0,0,0-.466.006c-.365.059-.865.264-.987.626a.7.7,0,0,0-.024.274c.008.074.077.166.068.257a.48.48,0,0,1-.114.164,1.123,1.123,0,0,1-.684.323.832.832,0,0,1-.652-.312c-.367-.493.108-1.347.1-1.665-.022-.847-1.091-.342-1.514-.122a4.167,4.167,0,0,0-1.246,1.112,3.605,3.605,0,0,0-.5.764.1.1,0,0,1-.1.052,2.609,2.609,0,0,0,.9.244,1.444,1.444,0,0,0,1.014-.273.246.246,0,0,1,.146-.052.238.238,0,0,1,.162.069c0,.005.058.049.122.1l.133.106.078.061.223.173.042.033c.083.063.165.127.239.182h0c.087.065.17.127.218.159l0,0a.106.106,0,0,1,.037.059.162.162,0,0,1-.042.106s-.046.051-.114.137a4.461,4.461,0,0,0-.563.963,1.3,1.3,0,0,0,1.016.767.531.531,0,0,0,.6-.435c.007.006.027.031.031.033.046-.042.258,1.1.537,1.415-.262.122-.667.534-.447,1.665a10.188,10.188,0,0,1-.8-.669,1.216,1.216,0,0,0-.977-.841,4.95,4.95,0,0,0,.433.958,2.754,2.754,0,0,1,.273,1.544c.268-.274.227-1.029.227-1.029a.218.218,0,0,1,.059-.025c.055,0,.323.52.787.63a5.986,5.986,0,0,0,1.942,2.1c-.012.25.018.846-.143.846-.517.115-.994-.234-1.45-.21-.038-.019-.079-.037-.079-.037-1.96-.945-4.544,1.082-4.975,1.475-.227.209-.49-.076-.49-.076a.723.723,0,0,0-1.111,0s-.264.285-.491.076c-.407-.372-2.749-2.186-4.664-1.567,0-.105-.263-.158-.336-.185a1.958,1.958,0,0,1-.38-.211,2.625,2.625,0,0,0-.785-.067.956.956,0,0,1-.3-.112,2.956,2.956,0,0,1-.852-.7c-.031-.045-.107-.15-.122-.167a1.219,1.219,0,0,1-.215-.406,2.91,2.91,0,0,1,.113-1.166c.041-.284.032-.3.057-.606a3.6,3.6,0,0,0,2-1.815c.027-.038.1-.193.1-.193.054.008.107.012.166.015.486,0,.813-.269,1.345-.2,0,.029.071.253.416.394a2.132,2.132,0,0,0,.168.907c.029.047.066.087.092.126a3.637,3.637,0,0,0,.294-1.26.257.257,0,0,1-.04-.1,1.137,1.137,0,0,0-.65-.9,3,3,0,0,1-.392-.18,1.425,1.425,0,0,1-.515-.512,1.393,1.393,0,0,0,.128-.142,2.994,2.994,0,0,0,.634-1.451c.26-.355.981-.217,1.255-.166a.6.6,0,0,1,.247.078c.077.054.095.176.2.223a.843.843,0,0,0,.381,0,.959.959,0,0,1,.114.21.821.821,0,0,0,.109.142,2.752,2.752,0,0,0,.981-.281.175.175,0,0,1-.053-.045,1.134,1.134,0,0,0-.592-.44c-.268-.045-.325-.285-.582-.336a1,1,0,0,0-.371-.024,6.628,6.628,0,0,1-1.5-.18c-.506-.036-.522.31-.707.6a1.757,1.757,0,0,1-.233.313c-.139.135-.3.14-.471.268l-.078-.21a1.729,1.729,0,0,0-.227-.528,1.81,1.81,0,0,0-1.2-.906.624.624,0,0,1-.211-.117.1.1,0,0,1,0-.178c.173-.1.474-.065.671-.156.487-.227.315-.64.125-.673a4.515,4.515,0,0,1-.775-.214c-.118-.074-.323-.446-.516-.537-.213-.058-.14-.407-.337-.483a.666.666,0,0,0-.349.1c-.008-.073-.061-.47-.279-.6-.163-.093-.223.052-.215.147s.239.2.283.576c-.04.025-.078.047-.118.075a.744.744,0,0,0-.26-.488c-.164-.094-.223.051-.215.145s.211.187.274.5c-.048.04-.093.08-.139.122-.327-.09-.415-.312-.5-.327s-.241.027-.165.2a.76.76,0,0,0,.474.311c-.033.037-.061.072-.09.107-.379-.076-.472-.323-.557-.342s-.244.029-.166.2c.11.241.54.334.58.342a.422.422,0,0,0-.086.264c-.295-.034-.819.125-.72.473.1.071.446-.214.767-.055a1.175,1.175,0,0,0,.627.4c.118.093.137.262.192.415a3.372,3.372,0,0,0,.459.763c.181.276.37.566.561.807a.491.491,0,0,1,.032.236,7.387,7.387,0,0,1-1.132,1c-.269.252-2.809,2.186-3.129,3.029a1.789,1.789,0,0,0-.1.682c-.156.083-.5.218-.6.065-.2-.272.186-.478.1-.742a.2.2,0,0,0-.281-.1.855.855,0,0,0,.094,1.44c.44.183.5-.291.844-.1.081.046.887.766.752,1.335a.639.639,0,0,1-.055.133c-.177.22-.472.389-.673.6-.42.266.4,1.938.33,2.8-.047.326.272.288.466.8a.59.59,0,0,0-.493.2.379.379,0,0,0-.084.258.419.419,0,0,0,.838,0,.3.3,0,0,0,0-.063.817.817,0,0,1,.336.073l.37.2a3.747,3.747,0,0,1-3.411.457s-.96-.306-.691-1.159a.465.465,0,0,1,.178-.224.474.474,0,0,0,.19.285.489.489,0,0,0,.276.087.482.482,0,0,0,.347-.814.39.39,0,0,0-.067-.053l0,0-.01-.007a.808.808,0,0,0-.694-.074.926.926,0,0,0-.588,1.267s-.624-.142-.859.143a.35.35,0,0,0-.075.237v.01a.521.521,0,0,0,.067.2.362.362,0,0,0,.579.022l0,0c.025-.032.1-.077.214.04,1.4,1.463,3.692.86,4.96-.12a7.7,7.7,0,0,1,1.488-1.142c.305.132.629.229.944.343a3.039,3.039,0,0,0,.579,1.865.685.685,0,0,1-.962.3.5.5,0,0,1-.066-.758s.254-.212.363.053a.248.248,0,0,0-.234.246.244.244,0,0,0,.488.014.6.6,0,0,0-.2-.538.632.632,0,0,0-.556-.15c-.533.083-.834,1.2.218,1.658,0,0,.826.376,1.252-.24,0,0-.006-.09.154.064.874.848,2.828.6,3.6.025a4.421,4.421,0,0,1,.411-.226.608.608,0,1,0,.713-.616,1.286,1.286,0,0,0-.967.229,4.233,4.233,0,0,1-.565.318,3.509,3.509,0,0,0,.414-1.2c.851.094,1.726.156,2.631.175a2.579,2.579,0,0,1-.149.831s-.319.133-.327.358c0,0-.036.165.248.393a1.564,1.564,0,0,1,.268.407s.016.248.357.248a.247.247,0,0,0,.065-.008.285.285,0,0,0,.066.008c.341,0,.357-.248.357-.248a1.57,1.57,0,0,1,.267-.407c.284-.228.249-.393.249-.393-.006-.225-.328-.358-.328-.358a2.577,2.577,0,0,1-.148-.83c.9-.02,1.78-.081,2.631-.174a3.469,3.469,0,0,0,.414,1.2,4.349,4.349,0,0,1-.563-.318,1.3,1.3,0,0,0-.971-.229.61.61,0,1,0,.714.616,4.457,4.457,0,0,1,.413.226c.773.577,2.729.823,3.6-.025.159-.154.152-.064.152-.064.427.616,1.255.24,1.255.24,1.049-.462.748-1.575.218-1.658a.637.637,0,0,0-.559.15.6.6,0,0,0-.2.538.244.244,0,0,0,.488-.014.248.248,0,0,0-.234-.246c.109-.265.364-.053.364-.053a.5.5,0,0,1-.068.758.685.685,0,0,1-.962-.3,3.042,3.042,0,0,0,.58-1.862c.317-.113.642-.212.949-.344a7.772,7.772,0,0,1,1.483,1.14c1.268.98,3.555,1.583,4.96.12.112-.117.189-.072.214-.04l0,0a.362.362,0,0,0,.579-.022.538.538,0,0,0,.067-.2v-.01A.358.358,0,0,0,143.286,278.64ZM117.1,278.2s-.07.061-.146-.031c-.739-.907.389-1.937.748-1.309,0,0-.425.015-.378.314,0,0,.008.31.389.291,0,0,.532-.055.406-.7a.577.577,0,0,0-.394-.388,1.157,1.157,0,0,0-1.327.557,1.529,1.529,0,0,0-.094.488.8.8,0,0,0-.362-.177,4.576,4.576,0,0,1-.284-2.434,2.463,2.463,0,0,0,1.929-1.807.786.786,0,0,1,.472.568c.023.192-.067.393.046.549a3.166,3.166,0,0,0,.762.6,15.232,15.232,0,0,0,1.255.885c.15.031.241-.08.371-.057a.275.275,0,0,1,.113.071,1.571,1.571,0,0,0,.182.151,9.666,9.666,0,0,0-1.1.861A9.026,9.026,0,0,1,117.1,278.2Zm3.5,1.013a2.106,2.106,0,0,1-.161.475,3.142,3.142,0,0,1-.339-1.288c.237.077.469.16.711.228A3.737,3.737,0,0,0,120.6,279.213Zm2.789,1.328a2.45,2.45,0,0,1-2.51-.469,5.69,5.69,0,0,1,.35-1.347,21.506,21.506,0,0,0,2.581.485C123.746,279.776,123.623,280.506,123.386,280.541Zm-1.471-2.892a1.672,1.672,0,0,1,1.151-.473.836.836,0,0,1,.785.822C123.128,277.9,122.474,277.778,121.915,277.649Zm1.483-.942a3.3,3.3,0,0,0-1.865.848c-.447-.113-.85-.224-1.165-.324a2.251,2.251,0,0,1,.229-.372,3.091,3.091,0,0,1,3.523-.67C124.164,276.2,124.02,276.57,123.4,276.707Zm1.037,1.372c.1-.9.161-1.662.488-1.659a.555.555,0,0,1,.4.228c.283.393,1.048.865,1.4,1.58C125.9,278.206,125.127,278.159,124.435,278.079Zm3.578.149c.349-.715,1.114-1.187,1.4-1.58a.552.552,0,0,1,.4-.228c.327,0,.394.758.488,1.659C129.6,278.159,128.831,278.207,128.013,278.228Zm2.6-2.039a3.089,3.089,0,0,1,3.522.67,2.214,2.214,0,0,1,.231.376c-.315.1-.718.21-1.164.322a3.3,3.3,0,0,0-1.867-.85C130.711,276.57,130.564,276.2,130.611,276.189Zm1.055.987a1.664,1.664,0,0,1,1.152.476c-.559.128-1.215.246-1.939.348C131,277.166,131.666,277.176,131.666,277.176Zm-.321,3.365c-.236-.035-.36-.764-.42-1.329a21.768,21.768,0,0,0,2.582-.485,5.726,5.726,0,0,1,.348,1.345A2.45,2.45,0,0,1,131.345,280.541Zm2.95-.853a2.172,2.172,0,0,1-.162-.475,3.891,3.891,0,0,0-.21-.583c.241-.067.474-.149.709-.225A3.12,3.12,0,0,1,134.295,279.688Z" transform="translate(-111.371 -261.8)" fill="#fff"/>
          </g>
        </g>
      </g>
    </g>
  </g>
  <g id="Grupo_6" data-name="Grupo 6" transform="translate(44.354 6.187)">
    <path id="Trazado_35" data-name="Trazado 35" d="M157.488,264.285l-.118-4.774h-.033c-.1.6-.2,1.038-.276,1.365l-.805,3.409H154.64l-.771-3.409c-.075-.327-.175-.762-.284-1.365h-.034l-.075,4.774H152.47l.218-5.654h1.885s.62,2.848.946,4.674h.026c.376-1.818,1.113-4.674,1.113-4.674h1.851l.218,5.654Z" transform="translate(-152.47 -258.506)" fill="#fff"/>
    <path id="Trazado_36" data-name="Trazado 36" d="M160.008,264.285v-3.317l-.477-.1v-.687H161.1v4.1Zm-.033-5.779h1.106v1h-1.106Z" transform="translate(-152.47 -258.506)" fill="#fff"/>
    <path id="Trazado_37" data-name="Trazado 37" d="M164.64,264.285v-2.437c0-.62-.235-.913-.737-.913a1.321,1.321,0,0,0-.72.251v3.1h-1.1v-4.1h.754l.168.469a1.7,1.7,0,0,1,1.3-.553c1.038,0,1.449.611,1.449,1.65v2.538Z" transform="translate(-152.47 -258.506)" fill="#fff"/>
    <path id="Trazado_38" data-name="Trazado 38" d="M166.985,264.285v-3.317l-.478-.1v-.687h1.567v4.1Zm-.034-5.779h1.106v1h-1.106Z" transform="translate(-152.47 -258.506)" fill="#fff"/>
    <path id="Trazado_39" data-name="Trazado 39" d="M170.017,261.261c0,.637,1.775.444,1.775,1.784,0,.746-.552,1.324-1.616,1.324a2.607,2.607,0,0,1-1.231-.3l.226-.762a1.91,1.91,0,0,0,.971.285c.361,0,.6-.2.6-.453,0-.737-1.75-.494-1.75-1.892,0-.6.46-1.148,1.566-1.148a3.294,3.294,0,0,1,1.156.2l-.151.8a2.439,2.439,0,0,0-.988-.21C170.2,260.884,170.017,261.027,170.017,261.261Z" transform="translate(-152.47 -258.506)" fill="#fff"/>
    <path id="Trazado_40" data-name="Trazado 40" d="M174.171,264.369c-.729,0-1.206-.344-1.206-1.374V260.96h-.612v-.779h.612v-.712l1.08-.352v1.064h1.1v.779h-1.1v2.01a.411.411,0,0,0,.436.469,1.475,1.475,0,0,0,.628-.151l.167.8A2.343,2.343,0,0,1,174.171,264.369Z" transform="translate(-152.47 -258.506)" fill="#fff"/>
    <path id="Trazado_41" data-name="Trazado 41" d="M176.709,262.526a.93.93,0,0,0,1.055,1.013,2.75,2.75,0,0,0,1.206-.343l.209.771a3.366,3.366,0,0,1-1.549.4,1.908,1.908,0,0,1-2.019-2.145c0-1.264.612-2.127,1.927-2.127,1.239,0,1.725.921,1.725,1.952v.477Zm.77-1.625c-.544,0-.77.494-.77.98h1.5C178.208,261.353,178.049,260.9,177.479,260.9Z" transform="translate(-152.47 -258.506)" fill="#fff"/>
    <path id="Trazado_42" data-name="Trazado 42" d="M182.421,261.094a1.841,1.841,0,0,0-.511-.067,1.181,1.181,0,0,0-.737.276v2.982h-1.089v-4.1h.762l.117.553h.025a1.1,1.1,0,0,1,.98-.629,1.86,1.86,0,0,1,.478.059Z" transform="translate(-152.47 -258.506)" fill="#fff"/>
    <path id="Trazado_43" data-name="Trazado 43" d="M183.417,264.285v-3.317l-.477-.1v-.687h1.566v4.1Zm-.033-5.779h1.1v1h-1.1Z" transform="translate(-152.47 -258.506)" fill="#fff"/>
    <path id="Trazado_44" data-name="Trazado 44" d="M189.188,262.224c0,1.4-.7,2.145-1.927,2.145s-1.926-.737-1.926-2.145a1.936,1.936,0,1,1,3.853,0Zm-1.123,0c0-.988-.293-1.331-.8-1.331s-.795.352-.795,1.331c0,.955.259,1.341.795,1.341S188.065,263.2,188.065,262.224Z" transform="translate(-152.47 -258.506)" fill="#fff"/>
    <path id="Trazado_45" data-name="Trazado 45" d="M194.506,260.5a2.527,2.527,0,0,1-.1-.754v-1.239h1.088v5.779h-.887l-.126-.452a1.331,1.331,0,0,1-1.089.536c-.93,0-1.675-.67-1.675-2.136,0-1.357.771-2.136,1.767-2.136A1.335,1.335,0,0,1,194.506,260.5Zm-.1.62a1.464,1.464,0,0,0-.746-.2c-.519,0-.846.352-.846,1.306,0,.98.31,1.349.829,1.349a1.083,1.083,0,0,0,.763-.352Z" transform="translate(-152.47 -258.506)" fill="#fff"/>
    <path id="Trazado_46" data-name="Trazado 46" d="M197.42,262.526a.931.931,0,0,0,1.056,1.013,2.75,2.75,0,0,0,1.206-.343l.21.771a3.374,3.374,0,0,1-1.55.4,1.908,1.908,0,0,1-2.019-2.145c0-1.264.612-2.127,1.927-2.127,1.24,0,1.725.921,1.725,1.952v.477Zm.771-1.625c-.544,0-.771.494-.771.98h1.5C198.92,261.353,198.761,260.9,198.191,260.9Z" transform="translate(-152.47 -258.506)" fill="#fff"/>
    <path id="Trazado_47" data-name="Trazado 47" d="M152.529,271.733v-4.691h1.081v4.632c0,.343.209.394.661.394v.77a3.429,3.429,0,0,1-.6.067C152.831,272.9,152.529,272.461,152.529,271.733Z" transform="translate(-152.47 -258.506)" fill="#fff"/>
    <path id="Trazado_48" data-name="Trazado 48" d="M157.513,272.821l-.151-.485a1.475,1.475,0,0,1-1.2.569,1.273,1.273,0,0,1-1.374-1.315c0-.762.562-1.214,1.55-1.214h.863v-.21c0-.527-.3-.695-.721-.695a2.965,2.965,0,0,0-1.231.277l-.276-.78a4.155,4.155,0,0,1,1.616-.334c1.164,0,1.667.536,1.667,1.583v2.6Zm-.31-1.792h-.679c-.452,0-.661.218-.661.528a.546.546,0,0,0,.611.6,1.221,1.221,0,0,0,.729-.277Z" transform="translate(-152.47 -258.506)" fill="#fff"/>
    <path id="Trazado_49" data-name="Trazado 49" d="M160.159,269.8c0,.636,1.776.444,1.776,1.784,0,.745-.553,1.323-1.617,1.323a2.608,2.608,0,0,1-1.231-.3l.226-.762a1.911,1.911,0,0,0,.972.284c.36,0,.6-.2.6-.452,0-.737-1.751-.494-1.751-1.893,0-.6.461-1.147,1.566-1.147a3.291,3.291,0,0,1,1.156.2l-.151.8a2.435,2.435,0,0,0-.988-.209C160.344,269.421,160.159,269.563,160.159,269.8Z" transform="translate(-152.47 -258.506)" fill="#fff"/>
    <path id="Trazado_50" data-name="Trazado 50" d="M166.96,272.9c-1.591,0-2.446-1.055-2.446-2.94,0-1.758.846-2.881,2.446-2.881a3.53,3.53,0,0,1,1.926.478l-.418.887a2.37,2.37,0,0,0-1.391-.393c-.938,0-1.407.661-1.407,1.9,0,1.307.469,1.977,1.39,1.977a2.62,2.62,0,0,0,1.491-.52l.352.888A3.345,3.345,0,0,1,166.96,272.9Z" transform="translate(-152.47 -258.506)" fill="#fff"/>
    <path id="Trazado_51" data-name="Trazado 51" d="M172.387,272.821l-.167-.5a1.618,1.618,0,0,1-1.282.586c-1.022,0-1.491-.569-1.491-1.7v-2.488h1.089v2.5c0,.629.226.855.72.855a1.31,1.31,0,0,0,.737-.243v-3.108h1.114v4.1Z" transform="translate(-152.47 -258.506)" fill="#fff"/>
    <path id="Trazado_52" data-name="Trazado 52" d="M174.028,271.733v-4.691h1.081v4.632c0,.343.209.394.662.394v.77a3.444,3.444,0,0,1-.6.067C174.33,272.9,174.028,272.461,174.028,271.733Z" transform="translate(-152.47 -258.506)" fill="#fff"/>
    <path id="Trazado_53" data-name="Trazado 53" d="M178,272.9c-.728,0-1.206-.343-1.206-1.373V269.5h-.611v-.779h.611v-.711l1.081-.353v1.064h1.1v.779h-1.1v2.01a.411.411,0,0,0,.435.47,1.472,1.472,0,0,0,.628-.151l.168.8A2.359,2.359,0,0,1,178,272.9Z" transform="translate(-152.47 -258.506)" fill="#fff"/>
    <path id="Trazado_54" data-name="Trazado 54" d="M182.672,272.821l-.168-.5a1.614,1.614,0,0,1-1.281.586c-1.022,0-1.491-.569-1.491-1.7v-2.488h1.089v2.5c0,.629.226.855.72.855a1.31,1.31,0,0,0,.737-.243v-3.108h1.114v4.1Z" transform="translate(-152.47 -258.506)" fill="#fff"/>
    <path id="Trazado_55" data-name="Trazado 55" d="M186.633,269.63a1.835,1.835,0,0,0-.511-.067,1.184,1.184,0,0,0-.737.277v2.981H184.3v-4.1h.762l.118.553h.025a1.1,1.1,0,0,1,.98-.628,1.914,1.914,0,0,1,.477.058Z" transform="translate(-152.47 -258.506)" fill="#fff"/>
    <path id="Trazado_56" data-name="Trazado 56" d="M189.74,272.821l-.15-.485a1.475,1.475,0,0,1-1.2.569,1.273,1.273,0,0,1-1.374-1.315c0-.762.561-1.214,1.55-1.214h.862v-.21c0-.527-.3-.695-.72-.695a2.961,2.961,0,0,0-1.231.277l-.276-.78a4.155,4.155,0,0,1,1.616-.334c1.164,0,1.667.536,1.667,1.583v2.6Zm-.31-1.792h-.678c-.452,0-.662.218-.662.528a.546.546,0,0,0,.612.6,1.22,1.22,0,0,0,.728-.277Z" transform="translate(-152.47 -258.506)" fill="#fff"/>
    <path id="Trazado_57" data-name="Trazado 57" d="M192.387,269.8c0,.636,1.776.444,1.776,1.784,0,.745-.553,1.323-1.617,1.323a2.608,2.608,0,0,1-1.231-.3l.226-.762a1.911,1.911,0,0,0,.972.284c.36,0,.6-.2.6-.452,0-.737-1.751-.494-1.751-1.893,0-.6.461-1.147,1.566-1.147a3.292,3.292,0,0,1,1.156.2l-.15.8a2.447,2.447,0,0,0-.989-.209C192.571,269.421,192.387,269.563,192.387,269.8Z" transform="translate(-152.47 -258.506)" fill="#fff"/>
    <path id="Trazado_58" data-name="Trazado 58" d="M194.925,271.64h1.1v1.248c0,.7-.4,1-1.1,1.073v-.57c.15-.034.259-.176.259-.57l-.259-.125Z" transform="translate(-152.47 -258.506)" fill="#fff"/>
    <path id="Trazado_59" data-name="Trazado 59" d="M152.529,280.269v-4.69h1.081v4.631c0,.344.209.394.661.394v.771a3.429,3.429,0,0,1-.6.067C152.831,281.442,152.529,281,152.529,280.269Z" transform="translate(-152.47 -258.506)" fill="#fff"/>
    <path id="Trazado_60" data-name="Trazado 60" d="M157.513,281.358l-.151-.486a1.472,1.472,0,0,1-1.2.57,1.274,1.274,0,0,1-1.374-1.315c0-.763.562-1.215,1.55-1.215h.863V278.7c0-.528-.3-.7-.721-.7a2.965,2.965,0,0,0-1.231.276l-.276-.779a4.136,4.136,0,0,1,1.616-.335c1.164,0,1.667.536,1.667,1.583v2.605Zm-.31-1.793h-.679c-.452,0-.661.218-.661.528a.546.546,0,0,0,.611.6,1.226,1.226,0,0,0,.729-.276Z" transform="translate(-152.47 -258.506)" fill="#fff"/>
    <path id="Trazado_61" data-name="Trazado 61" d="M160.159,278.334c0,.637,1.776.444,1.776,1.785,0,.745-.553,1.323-1.617,1.323a2.607,2.607,0,0,1-1.231-.3l.226-.762a1.911,1.911,0,0,0,.972.285c.36,0,.6-.2.6-.453,0-.737-1.751-.494-1.751-1.892,0-.6.461-1.148,1.566-1.148a3.29,3.29,0,0,1,1.156.2l-.151.8a2.435,2.435,0,0,0-.988-.21C160.344,277.957,160.159,278.1,160.159,278.334Z" transform="translate(-152.47 -258.506)" fill="#fff"/>
    <path id="Trazado_62" data-name="Trazado 62" d="M165.326,281.358h-1.072l1.533-5.654h1.826l1.483,5.654h-1.231l-.294-1.273h-1.943Zm1.123-4.69-.62,2.529h1.541l-.578-2.529Z" transform="translate(-152.47 -258.506)" fill="#fff"/>
    <path id="Trazado_63" data-name="Trazado 63" d="M172.027,278.167a1.841,1.841,0,0,0-.511-.067,1.181,1.181,0,0,0-.737.276v2.982H169.69v-4.1h.762l.118.553h.025a1.1,1.1,0,0,1,.98-.629,1.858,1.858,0,0,1,.477.059Z" transform="translate(-152.47 -258.506)" fill="#fff"/>
    <path id="Trazado_64" data-name="Trazado 64" d="M174.2,281.442c-.728,0-1.206-.344-1.206-1.374v-2.035h-.611v-.779H173v-.712l1.081-.352v1.064h1.1v.779h-1.1v2.01a.41.41,0,0,0,.435.469,1.472,1.472,0,0,0,.628-.151l.168.8A2.347,2.347,0,0,1,174.2,281.442Z" transform="translate(-152.47 -258.506)" fill="#fff"/>
    <path id="Trazado_65" data-name="Trazado 65" d="M176.742,279.6a.93.93,0,0,0,1.055,1.013,2.758,2.758,0,0,0,1.207-.343l.209.771a3.37,3.37,0,0,1-1.55.4,1.908,1.908,0,0,1-2.018-2.145c0-1.264.611-2.127,1.926-2.127,1.24,0,1.726.921,1.726,1.952v.477Zm.771-1.625c-.545,0-.771.494-.771.98h1.5C178.241,278.426,178.082,277.974,177.513,277.974Z" transform="translate(-152.47 -258.506)" fill="#fff"/>
    <path id="Trazado_66" data-name="Trazado 66" d="M181.072,278.334c0,.637,1.776.444,1.776,1.785,0,.745-.553,1.323-1.617,1.323a2.607,2.607,0,0,1-1.231-.3l.226-.762a1.911,1.911,0,0,0,.972.285c.36,0,.6-.2.6-.453,0-.737-1.75-.494-1.75-1.892,0-.6.46-1.148,1.566-1.148a3.294,3.294,0,0,1,1.156.2l-.151.8a2.444,2.444,0,0,0-.989-.21C181.257,277.957,181.072,278.1,181.072,278.334Z" transform="translate(-152.47 -258.506)" fill="#fff"/>
    <path id="Trazado_67" data-name="Trazado 67" d="M187.119,281.266l-.762.134-1.223-4.146h1.231l.872,3.442h.016l.88-3.442h1.089l-1.265,4.205c-.352,1.181-.947,1.616-1.793,1.616a2.124,2.124,0,0,1-1.155-.41l.343-.746h.1a1.386,1.386,0,0,0,.762.293c.435,0,.72-.3.871-.829Z" transform="translate(-152.47 -258.506)" fill="#fff"/>
    <path id="Trazado_68" data-name="Trazado 68" d="M192.588,279.6a.931.931,0,0,0,1.056,1.013,2.754,2.754,0,0,0,1.206-.343l.209.771a3.366,3.366,0,0,1-1.549.4,1.908,1.908,0,0,1-2.019-2.145c0-1.264.611-2.127,1.926-2.127,1.24,0,1.726.921,1.726,1.952v.477Zm.771-1.625c-.545,0-.771.494-.771.98h1.5C194.087,278.426,193.928,277.974,193.359,277.974Z" transform="translate(-152.47 -258.506)" fill="#fff"/>
    <path id="Trazado_69" data-name="Trazado 69" d="M195.98,280.269v-4.69h1.081v4.631c0,.344.209.394.661.394v.771a3.429,3.429,0,0,1-.6.067C196.282,281.442,195.98,281,195.98,280.269Z" transform="translate(-152.47 -258.506)" fill="#fff"/>
    <path id="Trazado_70" data-name="Trazado 70" d="M154.263,287.926h-.62v1.968h-1.1v-5.653h1.717c1.156,0,2.153.553,2.153,1.767A1.944,1.944,0,0,1,154.263,287.926Zm-.025-2.755h-.6v1.893h.6a.933.933,0,0,0,1.013-1.014C155.251,285.472,154.866,285.171,154.238,285.171Z" transform="translate(-152.47 -258.506)" fill="#fff"/>
    <path id="Trazado_71" data-name="Trazado 71" d="M159.389,289.894l-.151-.485a1.473,1.473,0,0,1-1.2.569,1.273,1.273,0,0,1-1.373-1.315c0-.762.561-1.214,1.549-1.214h.863v-.21c0-.527-.3-.7-.72-.7a2.961,2.961,0,0,0-1.231.277l-.277-.78a4.165,4.165,0,0,1,1.617-.334c1.164,0,1.666.536,1.666,1.583v2.6Zm-.31-1.792H158.4c-.453,0-.662.218-.662.528a.546.546,0,0,0,.611.6,1.221,1.221,0,0,0,.729-.277Z" transform="translate(-152.47 -258.506)" fill="#fff"/>
    <path id="Trazado_72" data-name="Trazado 72" d="M162.6,289.978c-.729,0-1.206-.343-1.206-1.373v-2.036h-.612v-.779h.612v-.711l1.08-.352v1.063h1.1v.779h-1.1v2.011a.412.412,0,0,0,.436.469,1.476,1.476,0,0,0,.628-.151l.167.8A2.355,2.355,0,0,1,162.6,289.978Z" transform="translate(-152.47 -258.506)" fill="#fff"/>
    <path id="Trazado_73" data-name="Trazado 73" d="M166.742,286.7a1.833,1.833,0,0,0-.51-.067,1.184,1.184,0,0,0-.738.277v2.981h-1.088v-4.1h.762l.117.553h.025a1.1,1.1,0,0,1,.98-.628,1.924,1.924,0,0,1,.478.058Z" transform="translate(-152.47 -258.506)" fill="#fff"/>
    <path id="Trazado_74" data-name="Trazado 74" d="M167.739,289.894v-3.316l-.478-.1v-.687h1.567v4.1Zm-.034-5.779h1.106v1h-1.106Z" transform="translate(-152.47 -258.506)" fill="#fff"/>
    <path id="Trazado_75" data-name="Trazado 75" d="M173.451,287.357v2.537h-1.106v-2.437c0-.62-.226-.913-.737-.913a1.245,1.245,0,0,0-.7.252v3.1h-1.1v-4.1h.737l.184.478a1.543,1.543,0,0,1,1.215-.561,1.312,1.312,0,0,1,1.281.578,1.605,1.605,0,0,1,1.24-.578c1.172,0,1.516.611,1.516,1.65v2.537h-1.114v-2.437c0-.62-.26-.913-.771-.913a1.265,1.265,0,0,0-.7.252A2.9,2.9,0,0,1,173.451,287.357Z" transform="translate(-152.47 -258.506)" fill="#fff"/>
    <path id="Trazado_76" data-name="Trazado 76" d="M180.562,287.834c0,1.4-.7,2.144-1.927,2.144s-1.926-.737-1.926-2.144a1.936,1.936,0,1,1,3.853,0Zm-1.123,0c0-.988-.293-1.332-.8-1.332s-.795.352-.795,1.332c0,.955.259,1.34.795,1.34S179.439,288.814,179.439,287.834Z" transform="translate(-152.47 -258.506)" fill="#fff"/>
    <path id="Trazado_77" data-name="Trazado 77" d="M183.929,289.894v-2.437c0-.62-.235-.913-.737-.913a1.328,1.328,0,0,0-.721.252v3.1h-1.1v-4.1h.754l.167.469a1.7,1.7,0,0,1,1.3-.552c1.038,0,1.449.611,1.449,1.65v2.537Z" transform="translate(-152.47 -258.506)" fill="#fff"/>
    <path id="Trazado_78" data-name="Trazado 78" d="M186.274,289.894v-3.316l-.478-.1v-.687h1.566v4.1Zm-.034-5.779h1.106v1H186.24Z" transform="translate(-152.47 -258.506)" fill="#fff"/>
    <path id="Trazado_79" data-name="Trazado 79" d="M192.044,287.834c0,1.4-.7,2.144-1.926,2.144s-1.927-.737-1.927-2.144a1.936,1.936,0,1,1,3.853,0Zm-1.122,0c0-.988-.293-1.332-.8-1.332s-.8.352-.8,1.332c0,.955.26,1.34.8,1.34S190.922,288.814,190.922,287.834Z" transform="translate(-152.47 -258.506)" fill="#fff"/>
  </g>
</svg>
